<?xml version="1.0" encoding="UTF-8" standalone="no"?>
<svg
   xmlns:dc="http://purl.org/dc/elements/1.1/"
   xmlns:cc="http://creativecommons.org/ns#"
   xmlns:rdf="http://www.w3.org/1999/02/22-rdf-syntax-ns#"
   xmlns:svg="http://www.w3.org/2000/svg"
   xmlns="http://www.w3.org/2000/svg"
   xmlns:sodipodi="http://sodipodi.sourceforge.net/DTD/sodipodi-0.dtd"
   xmlns:inkscape="http://www.inkscape.org/namespaces/inkscape"
   width="154.78204mm"
   height="54.308952mm"
   viewBox="0 0 154.78204 54.308952"
   version="1.1"
   id="svg2768"
   inkscape:version="1.0.2-2 (e86c870879, 2021-01-15)"
   sodipodi:docname="in2wise.svg">
  <defs
     id="defs2762">
    <filter
       inkscape:collect="always"
       style="color-interpolation-filters:sRGB"
       id="filter3481"
       x="-5.8440587e-06"
       width="1.0000117"
       y="-5.8440587e-06"
       height="1.0000117">
      <feGaussianBlur
         inkscape:collect="always"
         stdDeviation="2.8548228e-05"
         id="feGaussianBlur3483" />
    </filter>
    <filter
       inkscape:collect="always"
       style="color-interpolation-filters:sRGB"
       id="filter3485"
       x="-7.8935191e-05"
       width="1.000158"
       y="-5.8440587e-06"
       height="1.0000117">
      <feGaussianBlur
         inkscape:collect="always"
         stdDeviation="2.8548228e-05"
         id="feGaussianBlur3487" />
    </filter>
    <filter
       inkscape:collect="always"
       style="color-interpolation-filters:sRGB"
       id="filter3489"
       x="-7.8935191e-05"
       width="1.000158"
       y="-5.8440587e-06"
       height="1.0000117">
      <feGaussianBlur
         inkscape:collect="always"
         stdDeviation="2.8548228e-05"
         id="feGaussianBlur3491" />
    </filter>
    <filter
       inkscape:collect="always"
       style="color-interpolation-filters:sRGB"
       id="filter3493"
       x="-5.845056e-06"
       width="1.0000117"
       y="-5.8440587e-06"
       height="1.0000117">
      <feGaussianBlur
         inkscape:collect="always"
         stdDeviation="2.8548228e-05"
         id="feGaussianBlur3495" />
    </filter>
    <filter
       inkscape:collect="always"
       style="color-interpolation-filters:sRGB"
       id="filter3497"
       x="-5.8440587e-06"
       width="1.0000117"
       y="-5.8426344e-06"
       height="1.0000117">
      <feGaussianBlur
         inkscape:collect="always"
         stdDeviation="2.8548228e-05"
         id="feGaussianBlur3499" />
    </filter>
    <filter
       inkscape:collect="always"
       style="color-interpolation-filters:sRGB"
       id="filter3501"
       x="-5.8445576e-06"
       width="1.0000117"
       y="-5.8440587e-06"
       height="1.0000117">
      <feGaussianBlur
         inkscape:collect="always"
         stdDeviation="2.8548228e-05"
         id="feGaussianBlur3503" />
    </filter>
    <filter
       inkscape:collect="always"
       style="color-interpolation-filters:sRGB"
       id="filter3505"
       x="-5.8445576e-06"
       width="1.0000117"
       y="-5.8440587e-06"
       height="1.0000117">
      <feGaussianBlur
         inkscape:collect="always"
         stdDeviation="2.8548228e-05"
         id="feGaussianBlur3507" />
    </filter>
    <filter
       inkscape:collect="always"
       style="color-interpolation-filters:sRGB"
       id="filter3509"
       x="-3.4974859e-05"
       width="1.0000699"
       y="-3.4974859e-05"
       height="1.0000699">
      <feGaussianBlur
         inkscape:collect="always"
         stdDeviation="2.8548228e-05"
         id="feGaussianBlur3511" />
    </filter>
    <filter
       inkscape:collect="always"
       style="color-interpolation-filters:sRGB"
       id="filter3513"
       x="-4.4169341e-05"
       width="1.0000883"
       y="-4.4177847e-05"
       height="1.0000885">
      <feGaussianBlur
         inkscape:collect="always"
         stdDeviation="2.8548228e-05"
         id="feGaussianBlur3515" />
    </filter>
    <filter
       inkscape:collect="always"
       style="color-interpolation-filters:sRGB"
       id="filter3517"
       x="-4.4155127e-05"
       width="1.0000883"
       y="-4.4198561e-05"
       height="1.0000885">
      <feGaussianBlur
         inkscape:collect="always"
         stdDeviation="2.8548228e-05"
         id="feGaussianBlur3519" />
    </filter>
    <filter
       inkscape:collect="always"
       style="color-interpolation-filters:sRGB"
       id="filter3521"
       x="-4.4180662e-05"
       width="1.0000885"
       y="-4.4191533e-05"
       height="1.0000885">
      <feGaussianBlur
         inkscape:collect="always"
         stdDeviation="2.8548228e-05"
         id="feGaussianBlur3523" />
    </filter>
    <filter
       inkscape:collect="always"
       style="color-interpolation-filters:sRGB"
       id="filter3525"
       x="-4.417247e-05"
       width="1.0000883"
       y="-4.4214295e-05"
       height="1.0000885">
      <feGaussianBlur
         inkscape:collect="always"
         stdDeviation="2.8548228e-05"
         id="feGaussianBlur3527" />
    </filter>
    <filter
       inkscape:collect="always"
       style="color-interpolation-filters:sRGB"
       id="filter3529"
       x="-3.616203e-05"
       width="1.0000722"
       y="-3.6191814e-05"
       height="1.0000724">
      <feGaussianBlur
         inkscape:collect="always"
         stdDeviation="2.8548228e-05"
         id="feGaussianBlur3531" />
    </filter>
    <filter
       inkscape:collect="always"
       style="color-interpolation-filters:sRGB"
       id="filter3533"
       x="-3.6174573e-05"
       width="1.0000722"
       y="-3.6186299e-05"
       height="1.0000724">
      <feGaussianBlur
         inkscape:collect="always"
         stdDeviation="2.8548228e-05"
         id="feGaussianBlur3535" />
    </filter>
    <filter
       inkscape:collect="always"
       style="color-interpolation-filters:sRGB"
       id="filter3537"
       x="-6.2430656e-05"
       width="1.0001249"
       y="-6.2492734e-05"
       height="1.0001251">
      <feGaussianBlur
         inkscape:collect="always"
         stdDeviation="2.8548228e-05"
         id="feGaussianBlur3539" />
    </filter>
    <filter
       inkscape:collect="always"
       style="color-interpolation-filters:sRGB"
       id="filter3541"
       x="-6.2430583e-05"
       width="1.0001249"
       y="-6.2430656e-05"
       height="1.0001249">
      <feGaussianBlur
         inkscape:collect="always"
         stdDeviation="2.8548228e-05"
         id="feGaussianBlur3543" />
    </filter>
    <filter
       inkscape:collect="always"
       style="color-interpolation-filters:sRGB"
       id="filter3545"
       x="-6.248126e-05"
       width="1.0001251"
       y="-6.2480096e-05"
       height="1.0001251">
      <feGaussianBlur
         inkscape:collect="always"
         stdDeviation="2.8548228e-05"
         id="feGaussianBlur3547" />
    </filter>
    <filter
       inkscape:collect="always"
       style="color-interpolation-filters:sRGB"
       id="filter3549"
       x="-6.2553598e-05"
       width="1.0001251"
       y="-6.2526218e-05"
       height="1.0001251">
      <feGaussianBlur
         inkscape:collect="always"
         stdDeviation="2.8548228e-05"
         id="feGaussianBlur3551" />
    </filter>
    <filter
       inkscape:collect="always"
       style="color-interpolation-filters:sRGB"
       id="filter3553"
       x="-3.4957015e-05"
       width="1.0000699"
       y="-3.4974859e-05"
       height="1.0000699">
      <feGaussianBlur
         inkscape:collect="always"
         stdDeviation="2.8548228e-05"
         id="feGaussianBlur3555" />
    </filter>
    <filter
       inkscape:collect="always"
       style="color-interpolation-filters:sRGB"
       id="filter3557"
       x="-1.4643246e-05"
       width="1.0000293"
       y="-1.375542e-05"
       height="1.0000275">
      <feGaussianBlur
         inkscape:collect="always"
         stdDeviation="2.8548228e-05"
         id="feGaussianBlur3559" />
    </filter>
    <filter
       inkscape:collect="always"
       style="color-interpolation-filters:sRGB"
       id="filter3561"
       x="-1.349798e-05"
       width="1.0000269"
       y="-1.3645837e-05"
       height="1.0000273">
      <feGaussianBlur
         inkscape:collect="always"
         stdDeviation="2.8548228e-05"
         id="feGaussianBlur3563" />
    </filter>
    <filter
       inkscape:collect="always"
       style="color-interpolation-filters:sRGB"
       id="filter3565"
       x="-1.2758984e-05"
       width="1.0000255"
       y="-1.3487352e-05"
       height="1.0000269">
      <feGaussianBlur
         inkscape:collect="always"
         stdDeviation="2.8548228e-05"
         id="feGaussianBlur3567" />
    </filter>
    <filter
       inkscape:collect="always"
       style="color-interpolation-filters:sRGB"
       id="filter3569"
       x="-1.5403721e-05"
       width="1.0000308"
       y="-1.3487352e-05"
       height="1.0000269">
      <feGaussianBlur
         inkscape:collect="always"
         stdDeviation="2.8548228e-05"
         id="feGaussianBlur3571" />
    </filter>
    <filter
       inkscape:collect="always"
       style="color-interpolation-filters:sRGB"
       id="filter3573"
       x="-1.349798e-05"
       width="1.0000269"
       y="-1.4124046e-05"
       height="1.0000283">
      <feGaussianBlur
         inkscape:collect="always"
         stdDeviation="2.8548228e-05"
         id="feGaussianBlur3575" />
    </filter>
  </defs>
  <sodipodi:namedview
     id="base"
     pagecolor="#ffffff"
     bordercolor="#666666"
     borderopacity="1.0"
     inkscape:pageopacity="0.0"
     inkscape:pageshadow="2"
     inkscape:zoom="0.35"
     inkscape:cx="292.5015"
     inkscape:cy="102.63109"
     inkscape:document-units="mm"
     inkscape:current-layer="layer1"
     inkscape:document-rotation="0"
     showgrid="false"
     inkscape:window-width="1920"
     inkscape:window-height="1017"
     inkscape:window-x="-8"
     inkscape:window-y="-8"
     inkscape:window-maximized="1"
     inkscape:snap-page="false" />
  <metadata
     id="metadata2765">
    <rdf:RDF>
      <cc:Work
         rdf:about="">
        <dc:format>image/svg+xml</dc:format>
        <dc:type
           rdf:resource="http://purl.org/dc/dcmitype/StillImage" />
        <dc:title></dc:title>
      </cc:Work>
    </rdf:RDF>
  </metadata>
  <g
     inkscape:label="레이어 1"
     inkscape:groupmode="layer"
     id="layer1"
     transform="translate(-32.222066,-122.52409)">
    <g
       id="g901"
       transform="matrix(1.7290808,0,0,-1.7290808,181.94287,152.67316)"
       style="filter:url(#filter3481)">
      <path
         d="M 0,0 C 0.239,0 0.435,0.195 0.435,0.435 0.435,0.674 0.239,0.869 0,0.869 h -10.421 v 2.278 c 0,1.258 1.022,2.281 2.28,2.281 H 0 c 0.239,0 0.435,0.194 0.435,0.434 0,0.241 -0.196,0.434 -0.435,0.434 h -8.141 c -1.736,0 -3.148,-1.412 -3.148,-3.149 v -5.426 c 0,-1.736 1.412,-3.149 3.148,-3.149 H 0 c 0.239,0 0.435,0.196 0.435,0.435 0,0.239 -0.196,0.434 -0.435,0.434 h -8.141 c -1.258,0 -2.28,1.023 -2.28,2.28 V 0 Z"
         style="fill:#00377c;fill-opacity:1;fill-rule:nonzero;stroke:none"
         id="path903" />
    </g>
    <g
       id="g905"
       transform="matrix(1.7290808,0,0,-1.7290808,37.475053,152.67316)"
       style="filter:url(#filter3485)">
      <path
         d="m 0,0 v -4.993 c 0,-0.239 0.194,-0.435 0.434,-0.435 0.24,0 0.434,0.196 0.434,0.435 V 5.862 C 0.868,6.103 0.674,6.296 0.434,6.296 0.194,6.296 0,6.103 0,5.862 V 0.869 Z"
         style="fill:#00377c;fill-opacity:1;fill-rule:nonzero;stroke:none"
         id="path907" />
    </g>
    <g
       id="g909"
       transform="matrix(1.7290808,0,0,-1.7290808,127.07825,152.67316)"
       style="filter:url(#filter3489)">
      <path
         d="m 0,0 v -4.993 c 0,-0.239 0.194,-0.435 0.434,-0.435 0.24,0 0.434,0.196 0.434,0.435 V 5.862 C 0.868,6.103 0.674,6.296 0.434,6.296 0.194,6.296 0,6.103 0,5.862 V 0.869 Z"
         style="fill:#00377c;fill-opacity:1;fill-rule:nonzero;stroke:none"
         id="path911" />
    </g>
    <g
       id="g913"
       transform="matrix(1.7290808,0,0,-1.7290808,150.16931,162.05827)"
       style="filter:url(#filter3493)">
      <path
         d="m 0,0 h -8.142 c -0.239,0 -0.433,0.195 -0.433,0.435 0,0.239 0.194,0.434 0.433,0.434 H 0 c 1.257,0 2.278,1.023 2.278,2.279 0,1.258 -1.021,2.28 -2.278,2.28 h -5.428 c -1.735,0 -3.147,1.413 -3.147,3.147 0,1.737 1.412,3.149 3.147,3.149 h 8.141 c 0.24,0 0.434,-0.194 0.434,-0.434 0,-0.24 -0.194,-0.435 -0.434,-0.435 h -8.141 c -1.257,0 -2.279,-1.022 -2.279,-2.28 0,-1.256 1.022,-2.278 2.279,-2.278 L 0,6.297 C 1.735,6.297 3.147,4.885 3.147,3.148 3.147,1.414 1.735,0 0,0"
         style="fill:#00377c;fill-opacity:1;fill-rule:nonzero;stroke:none"
         id="path915" />
    </g>
    <g
       id="g917"
       transform="matrix(1.7290808,0,0,-1.7290808,65.305843,141.78877)"
       style="filter:url(#filter3497)">
      <path
         d="m 0,0 c -0.239,0 -0.434,-0.194 -0.434,-0.435 v -5.973 l -5.481,5.481 c -0.917,0.917 -2.232,1.179 -3.431,0.682 -1.198,-0.496 -1.943,-1.611 -1.943,-2.908 v -8.136 c 0,-0.24 0.195,-0.435 0.435,-0.435 0.239,0 0.433,0.195 0.433,0.435 v 8.136 c 0,1.123 0.728,1.824 1.408,2.105 0.68,0.283 1.69,0.3 2.484,-0.493 l 6.095,-6.096 v -3.652 c 0,-0.24 0.195,-0.435 0.434,-0.435 0.24,0 0.435,0.195 0.435,0.435 V -0.435 C 0.435,-0.194 0.24,0 0,0"
         style="fill:#00377c;fill-opacity:1;fill-rule:nonzero;stroke:none"
         id="path919" />
    </g>
    <g
       id="g921"
       transform="matrix(1.7290808,0,0,-1.7290808,119.46805,141.78705)"
       style="filter:url(#filter3501)">
      <path
         d="m 0,0 c -0.24,0 -0.434,-0.193 -0.434,-0.434 v -8.141 c 0,-1.257 -1.023,-2.279 -2.28,-2.279 -1.257,0 -2.279,1.022 -2.279,2.279 v 8.141 C -4.993,-0.193 -5.187,0 -5.428,0 -5.667,0 -5.862,-0.193 -5.862,-0.434 v -8.141 c 0,-1.257 -1.022,-2.279 -2.279,-2.279 -1.257,0 -2.28,1.022 -2.28,2.279 v 8.141 c 0,0.241 -0.194,0.434 -0.434,0.434 -0.24,0 -0.434,-0.193 -0.434,-0.434 v -8.141 c 0,-1.735 1.412,-3.149 3.148,-3.149 1.155,0 2.165,0.626 2.713,1.557 0.549,-0.931 1.56,-1.557 2.714,-1.557 1.736,0 3.148,1.414 3.148,3.149 v 8.141 C 0.434,-0.193 0.24,0 0,0"
         style="fill:#00377c;fill-opacity:1;fill-rule:nonzero;stroke:none"
         id="path923" />
    </g>
    <g
       id="g925"
       transform="matrix(1.7290808,0,0,-1.7290808,92.386194,162.05827)"
       style="filter:url(#filter3505)">
      <path
         d="m 0,0 h -10.854 c -0.24,0 -0.434,0.195 -0.434,0.435 v 2.713 c 0,1.737 1.412,3.149 3.148,3.149 h 5.427 c 1.257,0 2.279,1.022 2.279,2.278 0,1.258 -1.022,2.28 -2.279,2.28 h -8.141 c -0.24,0 -0.434,0.195 -0.434,0.435 0,0.24 0.194,0.434 0.434,0.434 h 8.141 c 1.736,0 3.148,-1.412 3.148,-3.149 0,-1.734 -1.412,-3.147 -3.148,-3.147 H -8.14 c -1.257,0 -2.28,-1.022 -2.28,-2.28 V 0.869 H 0 C 0.24,0.869 0.435,0.674 0.435,0.435 0.435,0.195 0.24,0 0,0"
         style="fill:#00377c;fill-opacity:1;fill-rule:nonzero;stroke:none"
         id="path927" />
    </g>
    <g
       id="g929"
       transform="matrix(1.7290808,0,0,-1.7290808,36.531155,138.58394)"
       style="filter:url(#filter3509)">
      <path
         d="m 0,0 c 0,0.541 0.438,0.979 0.979,0.979 0.542,0 0.98,-0.438 0.98,-0.979 0,-0.542 -0.438,-0.98 -0.98,-0.98 C 0.438,-0.98 0,-0.542 0,0"
         style="fill:#00377c;fill-opacity:1;fill-rule:nonzero;stroke:none"
         id="path931" />
    </g>
    <g
       id="g933"
       transform="matrix(1.7290808,0,0,-1.7290808,124.2298,133.00489)"
       style="filter:url(#filter3513)">
      <path
         d="m 0,0 c -0.132,0.361 0.057,0.767 0.418,0.897 l 0.11,0.041 C 0.891,1.07 1.296,0.881 1.427,0.519 L 1.467,0.408 C 1.599,0.046 1.41,-0.357 1.048,-0.489 l -0.11,-0.04 C 0.576,-0.66 0.172,-0.473 0.041,-0.11 Z"
         style="fill:#00abcc;fill-opacity:1;fill-rule:nonzero;stroke:none"
         id="path935" />
    </g>
    <g
       id="g937"
       transform="matrix(1.7290808,0,0,-1.7290808,132.14741,136.69785)"
       style="filter:url(#filter3517)">
      <path
         d="m 0,0 c -0.133,0.362 0.056,0.767 0.419,0.897 l 0.11,0.04 C 0.891,1.07 1.294,0.883 1.426,0.521 L 1.467,0.41 C 1.599,0.048 1.41,-0.356 1.048,-0.488 L 0.937,-0.528 C 0.575,-0.66 0.172,-0.473 0.039,-0.109 Z"
         style="fill:#0066b2;fill-opacity:1;fill-rule:nonzero;stroke:none"
         id="path939" />
    </g>
    <g
       id="g941"
       transform="matrix(1.7290808,0,0,-1.7290808,126.35398,128.45254)"
       style="filter:url(#filter3521)">
      <path
         d="M 0,0 C -0.132,0.362 0.056,0.766 0.418,0.897 L 0.527,0.938 C 0.889,1.069 1.294,0.882 1.425,0.52 L 1.467,0.409 C 1.598,0.047 1.409,-0.357 1.048,-0.488 L 0.937,-0.528 C 0.574,-0.661 0.17,-0.472 0.039,-0.109 Z"
         style="fill:#0066b2;fill-opacity:1;fill-rule:nonzero;stroke:none"
         id="path943" />
    </g>
    <g
       id="g945"
       transform="matrix(1.7290808,0,0,-1.7290808,122.10717,137.55564)"
       style="filter:url(#filter3525)">
      <path
         d="m 0,0 c -0.132,0.361 0.057,0.765 0.418,0.897 l 0.11,0.04 C 0.891,1.068 1.296,0.881 1.427,0.519 L 1.467,0.408 C 1.599,0.046 1.409,-0.358 1.048,-0.49 L 0.938,-0.529 C 0.577,-0.66 0.172,-0.473 0.041,-0.11 Z"
         style="fill:#0066b2;fill-opacity:1;fill-rule:nonzero;stroke:none"
         id="path947" />
    </g>
    <g
       id="g949"
       transform="matrix(1.7290808,0,0,-1.7290808,130.03326,130.89247)"
       style="filter:url(#filter3529)">
      <path
         d="M 0,0 C -0.132,0.362 0.058,0.766 0.419,0.898 L 0.781,1.029 C 1.144,1.161 1.547,0.974 1.68,0.61 L 1.811,0.249 C 1.942,-0.112 1.754,-0.517 1.392,-0.647 L 1.029,-0.78 C 0.668,-0.911 0.265,-0.724 0.132,-0.361 Z"
         style="fill:#0066b2;fill-opacity:1;fill-rule:nonzero;stroke:none"
         id="path951" />
    </g>
    <g
       id="g953"
       transform="matrix(1.7290808,0,0,-1.7290808,128.18939,134.85221)"
       style="filter:url(#filter3533)">
      <path
         d="M 0,0 C -0.133,0.363 0.055,0.767 0.418,0.898 L 0.779,1.03 C 1.142,1.163 1.546,0.974 1.677,0.611 L 1.81,0.249 C 1.94,-0.112 1.753,-0.516 1.391,-0.647 L 1.029,-0.779 C 0.667,-0.91 0.263,-0.723 0.131,-0.36 Z"
         style="fill:#0066b2;fill-opacity:1;fill-rule:nonzero;stroke:none"
         id="path955" />
    </g>
    <g
       id="g957"
       transform="matrix(1.7290808,0,0,-1.7290808,119.26872,135.30646)"
       style="filter:url(#filter3537)">
      <path
         d="M 0,0 C -0.104,0.284 0.045,0.6 0.328,0.703 0.612,0.807 0.929,0.658 1.031,0.376 1.135,0.092 0.987,-0.224 0.703,-0.327 0.421,-0.431 0.104,-0.282 0,0"
         style="fill:#00abcc;fill-opacity:1;fill-rule:nonzero;stroke:none"
         id="path959" />
    </g>
    <g
       id="g961"
       transform="matrix(1.7290808,0,0,-1.7290808,134.66322,133.09096)"
       style="filter:url(#filter3541)">
      <path
         d="M 0,0 C -0.103,0.284 0.045,0.601 0.329,0.703 0.611,0.807 0.929,0.659 1.031,0.375 1.136,0.093 0.987,-0.225 0.704,-0.328 0.42,-0.432 0.104,-0.283 0,0"
         style="fill:#00abcc;fill-opacity:1;fill-rule:nonzero;stroke:none"
         id="path963" />
    </g>
    <g
       id="g965"
       transform="matrix(1.7290808,0,0,-1.7290808,122.2896,127.63524)"
       style="filter:url(#filter3545)">
      <path
         d="M 0,0 C -0.104,0.285 0.045,0.601 0.328,0.703 0.611,0.807 0.929,0.66 1.03,0.376 1.134,0.094 0.987,-0.224 0.702,-0.327 0.42,-0.431 0.104,-0.282 0,0"
         style="fill:#00abcc;fill-opacity:1;fill-rule:nonzero;stroke:none"
         id="path967" />
    </g>
    <g
       id="g969"
       transform="matrix(1.7290808,0,0,-1.7290808,117.65113,125.30682)"
       style="filter:url(#filter3549)">
      <path
         d="M 0,0 C -0.104,0.282 0.043,0.599 0.327,0.702 0.61,0.805 0.927,0.658 1.029,0.375 1.132,0.091 0.985,-0.225 0.702,-0.328 0.419,-0.431 0.103,-0.284 0,0"
         style="fill:#00abcc;fill-opacity:1;fill-rule:nonzero;stroke:none"
         id="path971" />
    </g>
    <g
       id="g973"
       transform="matrix(1.7290808,0,0,-1.7290808,126.13264,138.58394)"
       style="filter:url(#filter3553)">
      <path
         d="M 0,0 C 0,0.541 0.439,0.979 0.98,0.979 1.522,0.979 1.96,0.541 1.96,0 1.96,-0.542 1.522,-0.98 0.98,-0.98 0.439,-0.98 0,-0.542 0,0"
         style="fill:#00377c;fill-opacity:1;fill-rule:nonzero;stroke:none"
         id="path975" />
    </g>
    <g
       id="g977"
       transform="matrix(1.7290808,0,0,-1.7290808,142.32772,166.84197)"
       style="filter:url(#filter3557)">
      <path
         d="m 0,0 c 0,0.059 0.018,0.103 0.054,0.132 0.034,0.03 0.079,0.045 0.134,0.045 0.055,0 0.102,-0.015 0.14,-0.045 C 0.365,0.103 0.385,0.059 0.385,0 V -2.887 C 0.385,-2.946 0.365,-2.99 0.328,-3.02 0.29,-3.05 0.243,-3.064 0.188,-3.064 0.133,-3.064 0.088,-3.05 0.054,-3.02 0.018,-2.99 0,-2.946 0,-2.887 Z m -3.733,-1.455 c 0,-0.305 0.079,-0.524 0.236,-0.659 0.158,-0.137 0.362,-0.205 0.61,-0.205 0.252,0 0.458,0.068 0.617,0.205 0.161,0.135 0.242,0.354 0.242,0.659 v 0.366 c 0,0.304 -0.081,0.524 -0.242,0.66 -0.159,0.136 -0.365,0.203 -0.617,0.203 -0.248,0 -0.452,-0.067 -0.61,-0.203 -0.157,-0.136 -0.236,-0.356 -0.236,-0.66 z m 0.281,-2.982 c 0.017,-0.015 0.043,-0.023 0.074,-0.023 H 0.39 c 0.047,0 0.088,-0.016 0.121,-0.045 0.034,-0.029 0.051,-0.071 0.051,-0.127 0,-0.055 -0.017,-0.097 -0.051,-0.127 C 0.478,-4.788 0.437,-4.804 0.39,-4.804 h -3.827 c -0.094,0 -0.17,0.014 -0.227,0.042 -0.057,0.028 -0.102,0.064 -0.131,0.107 -0.029,0.043 -0.049,0.092 -0.056,0.148 -0.008,0.055 -0.011,0.111 -0.011,0.165 v 0.899 c 0,0.059 0.016,0.103 0.053,0.133 0.035,0.03 0.08,0.044 0.136,0.044 0.054,0 0.1,-0.014 0.138,-0.044 0.038,-0.03 0.056,-0.074 0.056,-0.133 v -0.899 c 0,-0.047 0.009,-0.079 0.027,-0.095 m -0.665,3.513 c 0,0.143 0.029,0.277 0.086,0.403 0.056,0.126 0.139,0.237 0.244,0.332 0.107,0.093 0.236,0.168 0.389,0.224 0.151,0.055 0.322,0.082 0.511,0.082 0.19,0 0.361,-0.027 0.516,-0.082 0.153,-0.056 0.282,-0.131 0.389,-0.224 0.107,-0.095 0.19,-0.206 0.249,-0.332 0.058,-0.126 0.088,-0.26 0.088,-0.403 v -0.697 c 0,-0.142 -0.03,-0.276 -0.088,-0.402 -0.059,-0.126 -0.142,-0.237 -0.249,-0.331 -0.107,-0.095 -0.236,-0.17 -0.389,-0.226 -0.155,-0.055 -0.326,-0.083 -0.516,-0.083 -0.189,0 -0.36,0.028 -0.511,0.083 -0.153,0.056 -0.282,0.131 -0.389,0.226 -0.105,0.094 -0.188,0.205 -0.244,0.331 -0.057,0.126 -0.086,0.26 -0.086,0.402 z"
         style="fill:#00377c;fill-opacity:1;fill-rule:nonzero;stroke:none"
         id="path979" />
    </g>
    <g
       id="g981"
       transform="matrix(1.7290808,0,0,-1.7290808,152.30869,166.6393)"
       style="filter:url(#filter3561)">
      <path
         d="m 0,0 c 0.047,0 0.087,-0.015 0.121,-0.044 0.032,-0.029 0.05,-0.072 0.05,-0.127 0,-0.056 -0.018,-0.098 -0.05,-0.127 C 0.087,-0.327 0.047,-0.343 0,-0.343 h -3.412 c -0.033,0 -0.058,-0.008 -0.074,-0.023 -0.02,-0.016 -0.029,-0.047 -0.029,-0.095 v -0.621 h 3.455 c 0.048,0 0.088,-0.015 0.122,-0.044 0.033,-0.03 0.05,-0.072 0.05,-0.128 0,-0.055 -0.017,-0.097 -0.05,-0.126 -0.034,-0.029 -0.074,-0.045 -0.122,-0.045 h -3.455 v -0.608 c 0,-0.049 0.009,-0.079 0.029,-0.095 0.016,-0.016 0.041,-0.024 0.074,-0.024 h 3.477 c 0.047,0 0.087,-0.015 0.122,-0.045 0.032,-0.03 0.049,-0.072 0.049,-0.127 0,-0.055 -0.017,-0.097 -0.049,-0.126 C 0.152,-2.48 0.112,-2.495 0.065,-2.495 h -3.538 c -0.093,0 -0.171,0.014 -0.227,0.041 -0.057,0.027 -0.101,0.063 -0.13,0.106 -0.029,0.044 -0.048,0.093 -0.057,0.148 -0.007,0.056 -0.011,0.111 -0.011,0.167 v 1.572 c 0,0.056 0.004,0.11 0.011,0.166 0.009,0.055 0.028,0.105 0.057,0.148 0.029,0.043 0.073,0.079 0.13,0.106 C -3.644,-0.014 -3.566,0 -3.473,0 Z M 0.666,-3.604 C 0.631,-3.634 0.592,-3.648 0.543,-3.648 h -2.17 v -1.195 c 0,-0.06 -0.019,-0.104 -0.057,-0.134 -0.036,-0.03 -0.083,-0.044 -0.137,-0.044 -0.056,0 -0.102,0.014 -0.137,0.044 -0.036,0.03 -0.053,0.074 -0.053,0.134 v 1.195 h -2.177 c -0.046,0 -0.088,0.014 -0.121,0.044 -0.035,0.03 -0.051,0.071 -0.051,0.126 0,0.055 0.016,0.098 0.051,0.127 0.033,0.031 0.075,0.045 0.121,0.045 h 4.731 c 0.049,0 0.088,-0.014 0.123,-0.045 0.032,-0.029 0.05,-0.072 0.05,-0.127 0,-0.055 -0.018,-0.096 -0.05,-0.126"
         style="fill:#00377c;fill-opacity:1;fill-rule:nonzero;stroke:none"
         id="path983" />
    </g>
    <g
       id="g985"
       transform="matrix(1.7290808,0,0,-1.7290808,163.77404,170.63609)"
       style="filter:url(#filter3565)">
      <path
         d="m 0,0 c 0,-0.057 -0.017,-0.098 -0.052,-0.128 -0.032,-0.03 -0.073,-0.044 -0.12,-0.044 h -0.847 v -2.359 c 0,-0.061 -0.016,-0.105 -0.054,-0.134 -0.038,-0.03 -0.085,-0.044 -0.14,-0.044 -0.056,0 -0.1,0.014 -0.137,0.044 -0.034,0.029 -0.052,0.073 -0.052,0.134 v 4.725 c 0,0.059 0.018,0.103 0.052,0.132 0.037,0.03 0.081,0.045 0.137,0.045 0.055,0 0.102,-0.015 0.14,-0.045 0.038,-0.029 0.054,-0.073 0.054,-0.132 V 0.171 h 0.847 c 0.047,0 0.088,-0.015 0.12,-0.045 C -0.017,0.097 0,0.055 0,0 m -4.691,0.639 c 0,-0.155 0.02,-0.284 0.062,-0.385 0.041,-0.103 0.1,-0.187 0.176,-0.252 0.073,-0.065 0.161,-0.111 0.265,-0.139 0.102,-0.027 0.217,-0.041 0.343,-0.041 0.125,0 0.241,0.014 0.346,0.041 0.103,0.028 0.195,0.074 0.272,0.139 0.077,0.065 0.137,0.149 0.178,0.252 0.041,0.101 0.063,0.23 0.063,0.385 v 0.496 c 0,0.303 -0.081,0.518 -0.241,0.644 -0.16,0.127 -0.367,0.19 -0.618,0.19 -0.249,0 -0.452,-0.063 -0.608,-0.19 C -4.612,1.653 -4.691,1.438 -4.691,1.135 Z M -5.076,1.3 c 0,0.143 0.029,0.276 0.087,0.4 0.056,0.124 0.139,0.231 0.246,0.322 0.105,0.091 0.234,0.163 0.386,0.213 0.152,0.051 0.322,0.077 0.512,0.077 0.19,0 0.361,-0.026 0.514,-0.077 0.154,-0.05 0.284,-0.122 0.391,-0.213 0.107,-0.091 0.189,-0.198 0.248,-0.322 0.06,-0.124 0.089,-0.257 0.089,-0.4 V 0.473 c 0,-0.142 -0.029,-0.274 -0.089,-0.397 -0.059,-0.122 -0.141,-0.227 -0.248,-0.316 -0.107,-0.089 -0.237,-0.157 -0.391,-0.207 -0.153,-0.05 -0.324,-0.074 -0.514,-0.074 -0.19,0 -0.36,0.024 -0.512,0.074 -0.152,0.05 -0.281,0.118 -0.386,0.207 -0.107,0.089 -0.19,0.194 -0.246,0.316 -0.058,0.123 -0.087,0.255 -0.087,0.397 z m 2.875,-3.738 c 0,-0.055 -0.017,-0.097 -0.05,-0.126 -0.034,-0.03 -0.074,-0.045 -0.12,-0.045 H -5.2 c -0.046,0 -0.088,0.015 -0.12,0.045 -0.035,0.029 -0.05,0.071 -0.05,0.126 0,0.056 0.015,0.098 0.05,0.127 0.032,0.03 0.074,0.045 0.12,0.045 h 1.173 v 1.171 c 0,0.06 0.016,0.105 0.05,0.134 0.038,0.029 0.081,0.044 0.137,0.044 0.055,0 0.102,-0.015 0.14,-0.044 0.038,-0.029 0.056,-0.074 0.056,-0.134 v -1.171 h 1.273 c 0.046,0 0.086,-0.015 0.12,-0.045 0.033,-0.029 0.05,-0.071 0.05,-0.127"
         style="fill:#00377c;fill-opacity:1;fill-rule:nonzero;stroke:none"
         id="path987" />
    </g>
    <g
       id="g989"
       transform="matrix(1.7290808,0,0,-1.7290808,171.53466,166.84197)"
       style="filter:url(#filter3569)">
      <path
         d="M 0,0 C 0,0.059 0.018,0.103 0.054,0.132 0.089,0.162 0.135,0.177 0.19,0.177 0.245,0.177 0.292,0.162 0.328,0.132 0.366,0.103 0.385,0.059 0.385,0 V -4.726 C 0.385,-4.786 0.366,-4.83 0.328,-4.859 0.292,-4.89 0.245,-4.903 0.19,-4.903 0.135,-4.903 0.089,-4.89 0.054,-4.859 0.018,-4.83 0,-4.786 0,-4.726 Z m -3.678,-3.585 c 0,-0.308 0.07,-0.528 0.207,-0.662 0.138,-0.134 0.331,-0.201 0.579,-0.201 0.251,0 0.449,0.067 0.588,0.201 0.141,0.134 0.21,0.354 0.21,0.662 v 2.496 c 0,0.308 -0.069,0.528 -0.21,0.663 -0.139,0.133 -0.337,0.2 -0.588,0.2 -0.248,0 -0.441,-0.067 -0.579,-0.2 -0.137,-0.135 -0.207,-0.355 -0.207,-0.663 z m -0.385,2.661 c 0,0.143 0.025,0.277 0.077,0.403 0.051,0.126 0.128,0.237 0.227,0.332 0.102,0.093 0.223,0.168 0.367,0.224 0.144,0.055 0.311,0.082 0.5,0.082 0.19,0 0.357,-0.027 0.503,-0.082 0.145,-0.056 0.27,-0.131 0.369,-0.224 0.1,-0.095 0.178,-0.206 0.231,-0.332 0.054,-0.126 0.08,-0.26 0.08,-0.403 V -3.75 c 0,-0.143 -0.026,-0.276 -0.08,-0.402 -0.053,-0.126 -0.131,-0.237 -0.231,-0.332 -0.099,-0.094 -0.224,-0.169 -0.369,-0.225 -0.146,-0.055 -0.313,-0.082 -0.503,-0.082 -0.189,0 -0.356,0.027 -0.5,0.082 -0.144,0.056 -0.265,0.131 -0.367,0.225 -0.099,0.095 -0.176,0.206 -0.227,0.332 -0.052,0.126 -0.077,0.259 -0.077,0.402 z"
         style="fill:#00377c;fill-opacity:1;fill-rule:nonzero;stroke:none"
         id="path991" />
    </g>
    <g
       id="g993"
       transform="matrix(1.7290808,0,0,-1.7290808,181.68629,167.17443)"
       style="filter:url(#filter3573)">
      <path
         d="M 0,0 C -0.034,-0.029 -0.074,-0.045 -0.12,-0.045 H -1.76 V -0.52 c 0,-0.205 0.052,-0.394 0.157,-0.566 0.104,-0.173 0.244,-0.325 0.417,-0.46 0.174,-0.134 0.376,-0.248 0.607,-0.341 0.229,-0.092 0.473,-0.163 0.724,-0.21 0.119,-0.036 0.166,-0.107 0.141,-0.216 -0.007,-0.05 -0.032,-0.09 -0.074,-0.12 -0.041,-0.029 -0.097,-0.035 -0.169,-0.018 -0.26,0.05 -0.494,0.119 -0.703,0.203 -0.208,0.085 -0.397,0.183 -0.562,0.293 -0.166,0.11 -0.308,0.228 -0.43,0.355 -0.123,0.126 -0.225,0.258 -0.302,0.397 -0.079,-0.139 -0.18,-0.271 -0.3,-0.397 -0.119,-0.127 -0.263,-0.245 -0.428,-0.355 -0.167,-0.11 -0.355,-0.208 -0.565,-0.293 -0.212,-0.084 -0.444,-0.153 -0.702,-0.203 -0.071,-0.017 -0.127,-0.011 -0.167,0.018 -0.043,0.03 -0.068,0.07 -0.074,0.12 -0.024,0.109 0.022,0.18 0.141,0.216 0.252,0.047 0.493,0.118 0.725,0.21 0.23,0.093 0.431,0.207 0.606,0.341 0.174,0.135 0.312,0.287 0.417,0.46 0.106,0.172 0.156,0.361 0.156,0.566 v 0.475 h -1.643 c -0.049,0 -0.088,0.016 -0.121,0.045 -0.034,0.029 -0.052,0.072 -0.052,0.127 0,0.056 0.018,0.098 0.052,0.127 0.033,0.03 0.072,0.044 0.121,0.044 H -0.12 C -0.074,0.298 -0.034,0.284 0,0.254 0.033,0.225 0.05,0.183 0.05,0.127 0.05,0.072 0.033,0.029 0,0 M 0.533,-4.508 C 0.498,-4.537 0.459,-4.553 0.41,-4.553 h -4.731 c -0.046,0 -0.088,0.016 -0.12,0.045 -0.036,0.029 -0.052,0.072 -0.052,0.128 0,0.055 0.016,0.097 0.052,0.127 0.032,0.029 0.074,0.044 0.12,0.044 H 0.41 c 0.049,0 0.088,-0.015 0.123,-0.044 0.032,-0.03 0.05,-0.072 0.05,-0.127 0,-0.056 -0.018,-0.099 -0.05,-0.128"
         style="fill:#00377c;fill-opacity:1;fill-rule:nonzero;stroke:none"
         id="path995" />
    </g>
  </g>
</svg>
