<?xml version="1.0" encoding="UTF-8" standalone="no"?>
<svg
   xmlns:dc="http://purl.org/dc/elements/1.1/"
   xmlns:cc="http://creativecommons.org/ns#"
   xmlns:rdf="http://www.w3.org/1999/02/22-rdf-syntax-ns#"
   xmlns:svg="http://www.w3.org/2000/svg"
   xmlns="http://www.w3.org/2000/svg"
   xmlns:sodipodi="http://sodipodi.sourceforge.net/DTD/sodipodi-0.dtd"
   xmlns:inkscape="http://www.inkscape.org/namespaces/inkscape"
   width="48.040726mm"
   height="12.497818mm"
   viewBox="0 0 48.040725 12.497818"
   version="1.1"
   id="svg2768"
   inkscape:version="1.0.2-2 (e86c870879, 2021-01-15)"
   sodipodi:docname="in2wise.svg">
  <defs
     id="defs2762">
    <filter
       inkscape:collect="always"
       style="color-interpolation-filters:sRGB"
       id="filter3481"
       x="-5.8440587e-06"
       width="1.0000117"
       y="-5.8440587e-06"
       height="1.0000117">
      <feGaussianBlur
         inkscape:collect="always"
         stdDeviation="2.8548228e-05"
         id="feGaussianBlur3483" />
    </filter>
    <filter
       inkscape:collect="always"
       style="color-interpolation-filters:sRGB"
       id="filter3485"
       x="-7.8935191e-05"
       width="1.000158"
       y="-5.8440587e-06"
       height="1.0000117">
      <feGaussianBlur
         inkscape:collect="always"
         stdDeviation="2.8548228e-05"
         id="feGaussianBlur3487" />
    </filter>
    <filter
       inkscape:collect="always"
       style="color-interpolation-filters:sRGB"
       id="filter3489"
       x="-7.8935191e-05"
       width="1.000158"
       y="-5.8440587e-06"
       height="1.0000117">
      <feGaussianBlur
         inkscape:collect="always"
         stdDeviation="2.8548228e-05"
         id="feGaussianBlur3491" />
    </filter>
    <filter
       inkscape:collect="always"
       style="color-interpolation-filters:sRGB"
       id="filter3493"
       x="-5.845056e-06"
       width="1.0000117"
       y="-5.8440587e-06"
       height="1.0000117">
      <feGaussianBlur
         inkscape:collect="always"
         stdDeviation="2.8548228e-05"
         id="feGaussianBlur3495" />
    </filter>
    <filter
       inkscape:collect="always"
       style="color-interpolation-filters:sRGB"
       id="filter3497"
       x="-5.8440587e-06"
       width="1.0000117"
       y="-5.8426344e-06"
       height="1.0000117">
      <feGaussianBlur
         inkscape:collect="always"
         stdDeviation="2.8548228e-05"
         id="feGaussianBlur3499" />
    </filter>
    <filter
       inkscape:collect="always"
       style="color-interpolation-filters:sRGB"
       id="filter3501"
       x="-5.8445576e-06"
       width="1.0000117"
       y="-5.8440587e-06"
       height="1.0000117">
      <feGaussianBlur
         inkscape:collect="always"
         stdDeviation="2.8548228e-05"
         id="feGaussianBlur3503" />
    </filter>
    <filter
       inkscape:collect="always"
       style="color-interpolation-filters:sRGB"
       id="filter3505"
       x="-5.8445576e-06"
       width="1.0000117"
       y="-5.8440587e-06"
       height="1.0000117">
      <feGaussianBlur
         inkscape:collect="always"
         stdDeviation="2.8548228e-05"
         id="feGaussianBlur3507" />
    </filter>
    <filter
       inkscape:collect="always"
       style="color-interpolation-filters:sRGB"
       id="filter3509"
       x="-3.4974859e-05"
       width="1.0000699"
       y="-3.4974859e-05"
       height="1.0000699">
      <feGaussianBlur
         inkscape:collect="always"
         stdDeviation="2.8548228e-05"
         id="feGaussianBlur3511" />
    </filter>
    <filter
       inkscape:collect="always"
       style="color-interpolation-filters:sRGB"
       id="filter3513"
       x="-4.4169341e-05"
       width="1.0000883"
       y="-4.4177847e-05"
       height="1.0000885">
      <feGaussianBlur
         inkscape:collect="always"
         stdDeviation="2.8548228e-05"
         id="feGaussianBlur3515" />
    </filter>
    <filter
       inkscape:collect="always"
       style="color-interpolation-filters:sRGB"
       id="filter3517"
       x="-4.4155127e-05"
       width="1.0000883"
       y="-4.4198561e-05"
       height="1.0000885">
      <feGaussianBlur
         inkscape:collect="always"
         stdDeviation="2.8548228e-05"
         id="feGaussianBlur3519" />
    </filter>
    <filter
       inkscape:collect="always"
       style="color-interpolation-filters:sRGB"
       id="filter3521"
       x="-4.4180662e-05"
       width="1.0000885"
       y="-4.4191533e-05"
       height="1.0000885">
      <feGaussianBlur
         inkscape:collect="always"
         stdDeviation="2.8548228e-05"
         id="feGaussianBlur3523" />
    </filter>
    <filter
       inkscape:collect="always"
       style="color-interpolation-filters:sRGB"
       id="filter3525"
       x="-4.417247e-05"
       width="1.0000883"
       y="-4.4214295e-05"
       height="1.0000885">
      <feGaussianBlur
         inkscape:collect="always"
         stdDeviation="2.8548228e-05"
         id="feGaussianBlur3527" />
    </filter>
    <filter
       inkscape:collect="always"
       style="color-interpolation-filters:sRGB"
       id="filter3529"
       x="-3.616203e-05"
       width="1.0000722"
       y="-3.6191814e-05"
       height="1.0000724">
      <feGaussianBlur
         inkscape:collect="always"
         stdDeviation="2.8548228e-05"
         id="feGaussianBlur3531" />
    </filter>
    <filter
       inkscape:collect="always"
       style="color-interpolation-filters:sRGB"
       id="filter3533"
       x="-3.6174573e-05"
       width="1.0000722"
       y="-3.6186299e-05"
       height="1.0000724">
      <feGaussianBlur
         inkscape:collect="always"
         stdDeviation="2.8548228e-05"
         id="feGaussianBlur3535" />
    </filter>
    <filter
       inkscape:collect="always"
       style="color-interpolation-filters:sRGB"
       id="filter3537"
       x="-6.2430656e-05"
       width="1.0001249"
       y="-6.2492734e-05"
       height="1.0001251">
      <feGaussianBlur
         inkscape:collect="always"
         stdDeviation="2.8548228e-05"
         id="feGaussianBlur3539" />
    </filter>
    <filter
       inkscape:collect="always"
       style="color-interpolation-filters:sRGB"
       id="filter3541"
       x="-6.2430583e-05"
       width="1.0001249"
       y="-6.2430656e-05"
       height="1.0001249">
      <feGaussianBlur
         inkscape:collect="always"
         stdDeviation="2.8548228e-05"
         id="feGaussianBlur3543" />
    </filter>
    <filter
       inkscape:collect="always"
       style="color-interpolation-filters:sRGB"
       id="filter3545"
       x="-6.248126e-05"
       width="1.0001251"
       y="-6.2480096e-05"
       height="1.0001251">
      <feGaussianBlur
         inkscape:collect="always"
         stdDeviation="2.8548228e-05"
         id="feGaussianBlur3547" />
    </filter>
    <filter
       inkscape:collect="always"
       style="color-interpolation-filters:sRGB"
       id="filter3549"
       x="-6.2553598e-05"
       width="1.0001251"
       y="-6.2526218e-05"
       height="1.0001251">
      <feGaussianBlur
         inkscape:collect="always"
         stdDeviation="2.8548228e-05"
         id="feGaussianBlur3551" />
    </filter>
    <filter
       inkscape:collect="always"
       style="color-interpolation-filters:sRGB"
       id="filter3553"
       x="-3.4957015e-05"
       width="1.0000699"
       y="-3.4974859e-05"
       height="1.0000699">
      <feGaussianBlur
         inkscape:collect="always"
         stdDeviation="2.8548228e-05"
         id="feGaussianBlur3555" />
    </filter>
  </defs>
  <sodipodi:namedview
     id="base"
     pagecolor="#ffffff"
     bordercolor="#666666"
     borderopacity="1.0"
     inkscape:pageopacity="0.0"
     inkscape:pageshadow="2"
     inkscape:zoom="1.979899"
     inkscape:cx="272.40543"
     inkscape:cy="95.897253"
     inkscape:document-units="mm"
     inkscape:current-layer="layer1"
     inkscape:document-rotation="0"
     showgrid="false"
     inkscape:window-width="1920"
     inkscape:window-height="1017"
     inkscape:window-x="-8"
     inkscape:window-y="-8"
     inkscape:window-maximized="1"
     inkscape:snap-page="false" />
  <metadata
     id="metadata2765">
    <rdf:RDF>
      <cc:Work
         rdf:about="">
        <dc:format>image/svg+xml</dc:format>
        <dc:type
           rdf:resource="http://purl.org/dc/dcmitype/StillImage" />
        <dc:title />
      </cc:Work>
    </rdf:RDF>
  </metadata>
  <g
     inkscape:label="레이어 1"
     inkscape:groupmode="layer"
     id="layer1"
     transform="translate(-85.726357,-140.14028)">
    <g
       id="g901"
       transform="matrix(0.53184818,0,0,-0.53184818,131.99465,149.34969)"
       style="filter:url(#filter3481)">
      <path
         d="M 0,0 C 0.239,0 0.435,0.195 0.435,0.435 0.435,0.674 0.239,0.869 0,0.869 h -10.421 v 2.278 c 0,1.258 1.022,2.281 2.28,2.281 H 0 c 0.239,0 0.435,0.194 0.435,0.434 0,0.241 -0.196,0.434 -0.435,0.434 h -8.141 c -1.736,0 -3.148,-1.412 -3.148,-3.149 v -5.426 c 0,-1.736 1.412,-3.149 3.148,-3.149 H 0 c 0.239,0 0.435,0.196 0.435,0.435 0,0.239 -0.196,0.434 -0.435,0.434 h -8.141 c -1.258,0 -2.28,1.023 -2.28,2.28 V 0 Z"
         style="fill:#00377c;fill-opacity:1;fill-rule:nonzero;stroke:none"
         id="path903" />
    </g>
    <g
       id="g905"
       transform="matrix(0.53184818,0,0,-0.53184818,87.557776,149.34969)"
       style="filter:url(#filter3485)">
      <path
         d="m 0,0 v -4.993 c 0,-0.239 0.194,-0.435 0.434,-0.435 0.24,0 0.434,0.196 0.434,0.435 V 5.862 C 0.868,6.103 0.674,6.296 0.434,6.296 0.194,6.296 0,6.103 0,5.862 V 0.869 Z"
         style="fill:#00377c;fill-opacity:1;fill-rule:nonzero;stroke:none"
         id="path907" />
    </g>
    <g
       id="g909"
       transform="matrix(0.53184818,0,0,-0.53184818,115.11883,149.34969)"
       style="filter:url(#filter3489)">
      <path
         d="m 0,0 v -4.993 c 0,-0.239 0.194,-0.435 0.434,-0.435 0.24,0 0.434,0.196 0.434,0.435 V 5.862 C 0.868,6.103 0.674,6.296 0.434,6.296 0.194,6.296 0,6.103 0,5.862 V 0.869 Z"
         style="fill:#00377c;fill-opacity:1;fill-rule:nonzero;stroke:none"
         id="path911" />
    </g>
    <g
       id="g913"
       transform="matrix(0.53184818,0,0,-0.53184818,122.22141,152.23646)"
       style="filter:url(#filter3493)">
      <path
         d="m 0,0 h -8.142 c -0.239,0 -0.433,0.195 -0.433,0.435 0,0.239 0.194,0.434 0.433,0.434 H 0 c 1.257,0 2.278,1.023 2.278,2.279 0,1.258 -1.021,2.28 -2.278,2.28 h -5.428 c -1.735,0 -3.147,1.413 -3.147,3.147 0,1.737 1.412,3.149 3.147,3.149 h 8.141 c 0.24,0 0.434,-0.194 0.434,-0.434 0,-0.24 -0.194,-0.435 -0.434,-0.435 h -8.141 c -1.257,0 -2.279,-1.022 -2.279,-2.28 0,-1.256 1.022,-2.278 2.279,-2.278 L 0,6.297 C 1.735,6.297 3.147,4.885 3.147,3.148 3.147,1.414 1.735,0 0,0"
         style="fill:#00377c;fill-opacity:1;fill-rule:nonzero;stroke:none"
         id="path915" />
    </g>
    <g
       id="g917"
       transform="matrix(0.53184818,0,0,-0.53184818,96.118251,146.00177)"
       style="filter:url(#filter3497)">
      <path
         d="m 0,0 c -0.239,0 -0.434,-0.194 -0.434,-0.435 v -5.973 l -5.481,5.481 c -0.917,0.917 -2.232,1.179 -3.431,0.682 -1.198,-0.496 -1.943,-1.611 -1.943,-2.908 v -8.136 c 0,-0.24 0.195,-0.435 0.435,-0.435 0.239,0 0.433,0.195 0.433,0.435 v 8.136 c 0,1.123 0.728,1.824 1.408,2.105 0.68,0.283 1.69,0.3 2.484,-0.493 l 6.095,-6.096 v -3.652 c 0,-0.24 0.195,-0.435 0.434,-0.435 0.24,0 0.435,0.195 0.435,0.435 V -0.435 C 0.435,-0.194 0.24,0 0,0"
         style="fill:#00377c;fill-opacity:1;fill-rule:nonzero;stroke:none"
         id="path919" />
    </g>
    <g
       id="g921"
       transform="matrix(0.53184818,0,0,-0.53184818,112.77801,146.00124)"
       style="filter:url(#filter3501)">
      <path
         d="m 0,0 c -0.24,0 -0.434,-0.193 -0.434,-0.434 v -8.141 c 0,-1.257 -1.023,-2.279 -2.28,-2.279 -1.257,0 -2.279,1.022 -2.279,2.279 v 8.141 C -4.993,-0.193 -5.187,0 -5.428,0 -5.667,0 -5.862,-0.193 -5.862,-0.434 v -8.141 c 0,-1.257 -1.022,-2.279 -2.279,-2.279 -1.257,0 -2.28,1.022 -2.28,2.279 v 8.141 c 0,0.241 -0.194,0.434 -0.434,0.434 -0.24,0 -0.434,-0.193 -0.434,-0.434 v -8.141 c 0,-1.735 1.412,-3.149 3.148,-3.149 1.155,0 2.165,0.626 2.713,1.557 0.549,-0.931 1.56,-1.557 2.714,-1.557 1.736,0 3.148,1.414 3.148,3.149 v 8.141 C 0.434,-0.193 0.24,0 0,0"
         style="fill:#00377c;fill-opacity:1;fill-rule:nonzero;stroke:none"
         id="path923" />
    </g>
    <g
       id="g925"
       transform="matrix(0.53184818,0,0,-0.53184818,104.4479,152.23646)"
       style="filter:url(#filter3505)">
      <path
         d="m 0,0 h -10.854 c -0.24,0 -0.434,0.195 -0.434,0.435 v 2.713 c 0,1.737 1.412,3.149 3.148,3.149 h 5.427 c 1.257,0 2.279,1.022 2.279,2.278 0,1.258 -1.022,2.28 -2.279,2.28 h -8.141 c -0.24,0 -0.434,0.195 -0.434,0.435 0,0.24 0.194,0.434 0.434,0.434 h 8.141 c 1.736,0 3.148,-1.412 3.148,-3.149 0,-1.734 -1.412,-3.147 -3.148,-3.147 H -8.14 c -1.257,0 -2.28,-1.022 -2.28,-2.28 V 0.869 H 0 C 0.24,0.869 0.435,0.674 0.435,0.435 0.435,0.195 0.24,0 0,0"
         style="fill:#00377c;fill-opacity:1;fill-rule:nonzero;stroke:none"
         id="path927" />
    </g>
    <g
       id="g929"
       transform="matrix(0.53184818,0,0,-0.53184818,87.267441,145.01599)"
       style="filter:url(#filter3509)">
      <path
         d="m 0,0 c 0,0.541 0.438,0.979 0.979,0.979 0.542,0 0.98,-0.438 0.98,-0.979 0,-0.542 -0.438,-0.98 -0.98,-0.98 C 0.438,-0.98 0,-0.542 0,0"
         style="fill:#00377c;fill-opacity:1;fill-rule:nonzero;stroke:none"
         id="path931" />
    </g>
    <g
       id="g933"
       transform="matrix(0.53184818,0,0,-0.53184818,114.24267,143.29993)"
       style="filter:url(#filter3513)">
      <path
         d="m 0,0 c -0.132,0.361 0.057,0.767 0.418,0.897 l 0.11,0.041 C 0.891,1.07 1.296,0.881 1.427,0.519 L 1.467,0.408 C 1.599,0.046 1.41,-0.357 1.048,-0.489 l -0.11,-0.04 C 0.576,-0.66 0.172,-0.473 0.041,-0.11 Z"
         style="fill:#00abcc;fill-opacity:1;fill-rule:nonzero;stroke:none"
         id="path935" />
    </g>
    <g
       id="g937"
       transform="matrix(0.53184818,0,0,-0.53184818,116.67806,144.43584)"
       style="filter:url(#filter3517)">
      <path
         d="m 0,0 c -0.133,0.362 0.056,0.767 0.419,0.897 l 0.11,0.04 C 0.891,1.07 1.294,0.883 1.426,0.521 L 1.467,0.41 C 1.599,0.048 1.41,-0.356 1.048,-0.488 L 0.937,-0.528 C 0.575,-0.66 0.172,-0.473 0.039,-0.109 Z"
         style="fill:#0066b2;fill-opacity:1;fill-rule:nonzero;stroke:none"
         id="path939" />
    </g>
    <g
       id="g941"
       transform="matrix(0.53184818,0,0,-0.53184818,114.89604,141.89967)"
       style="filter:url(#filter3521)">
      <path
         d="M 0,0 C -0.132,0.362 0.056,0.766 0.418,0.897 L 0.527,0.938 C 0.889,1.069 1.294,0.882 1.425,0.52 L 1.467,0.409 C 1.598,0.047 1.409,-0.357 1.048,-0.488 L 0.937,-0.528 C 0.574,-0.661 0.17,-0.472 0.039,-0.109 Z"
         style="fill:#0066b2;fill-opacity:1;fill-rule:nonzero;stroke:none"
         id="path943" />
    </g>
    <g
       id="g945"
       transform="matrix(0.53184818,0,0,-0.53184818,113.58977,144.69969)"
       style="filter:url(#filter3525)">
      <path
         d="m 0,0 c -0.132,0.361 0.057,0.765 0.418,0.897 l 0.11,0.04 C 0.891,1.068 1.296,0.881 1.427,0.519 L 1.467,0.408 C 1.599,0.046 1.409,-0.358 1.048,-0.49 L 0.938,-0.529 C 0.577,-0.66 0.172,-0.473 0.041,-0.11 Z"
         style="fill:#0066b2;fill-opacity:1;fill-rule:nonzero;stroke:none"
         id="path947" />
    </g>
    <g
       id="g949"
       transform="matrix(0.53184818,0,0,-0.53184818,116.02776,142.65017)"
       style="filter:url(#filter3529)">
      <path
         d="M 0,0 C -0.132,0.362 0.058,0.766 0.419,0.898 L 0.781,1.029 C 1.144,1.161 1.547,0.974 1.68,0.61 L 1.811,0.249 C 1.942,-0.112 1.754,-0.517 1.392,-0.647 L 1.029,-0.78 C 0.668,-0.911 0.265,-0.724 0.132,-0.361 Z"
         style="fill:#0066b2;fill-opacity:1;fill-rule:nonzero;stroke:none"
         id="path951" />
    </g>
    <g
       id="g953"
       transform="matrix(0.53184818,0,0,-0.53184818,115.46061,143.86815)"
       style="filter:url(#filter3533)">
      <path
         d="M 0,0 C -0.133,0.363 0.055,0.767 0.418,0.898 L 0.779,1.03 C 1.142,1.163 1.546,0.974 1.677,0.611 L 1.81,0.249 C 1.94,-0.112 1.753,-0.516 1.391,-0.647 L 1.029,-0.779 C 0.667,-0.91 0.263,-0.723 0.131,-0.36 Z"
         style="fill:#0066b2;fill-opacity:1;fill-rule:nonzero;stroke:none"
         id="path955" />
    </g>
    <g
       id="g957"
       transform="matrix(0.53184818,0,0,-0.53184818,112.7167,144.00787)"
       style="filter:url(#filter3537)">
      <path
         d="M 0,0 C -0.104,0.284 0.045,0.6 0.328,0.703 0.612,0.807 0.929,0.658 1.031,0.376 1.135,0.092 0.987,-0.224 0.703,-0.327 0.421,-0.431 0.104,-0.282 0,0"
         style="fill:#00abcc;fill-opacity:1;fill-rule:nonzero;stroke:none"
         id="path959" />
    </g>
    <g
       id="g961"
       transform="matrix(0.53184818,0,0,-0.53184818,117.45189,143.3264)"
       style="filter:url(#filter3541)">
      <path
         d="M 0,0 C -0.103,0.284 0.045,0.601 0.329,0.703 0.611,0.807 0.929,0.659 1.031,0.375 1.136,0.093 0.987,-0.225 0.704,-0.328 0.42,-0.432 0.104,-0.283 0,0"
         style="fill:#00abcc;fill-opacity:1;fill-rule:nonzero;stroke:none"
         id="path963" />
    </g>
    <g
       id="g965"
       transform="matrix(0.53184818,0,0,-0.53184818,113.64589,141.64828)"
       style="filter:url(#filter3545)">
      <path
         d="M 0,0 C -0.104,0.285 0.045,0.601 0.328,0.703 0.611,0.807 0.929,0.66 1.03,0.376 1.134,0.094 0.987,-0.224 0.702,-0.327 0.42,-0.431 0.104,-0.282 0,0"
         style="fill:#00abcc;fill-opacity:1;fill-rule:nonzero;stroke:none"
         id="path967" />
    </g>
    <g
       id="g969"
       transform="matrix(0.53184818,0,0,-0.53184818,112.21915,140.93208)"
       style="filter:url(#filter3549)">
      <path
         d="M 0,0 C -0.104,0.282 0.043,0.599 0.327,0.702 0.61,0.805 0.927,0.658 1.029,0.375 1.132,0.091 0.985,-0.225 0.702,-0.328 0.419,-0.431 0.103,-0.284 0,0"
         style="fill:#00abcc;fill-opacity:1;fill-rule:nonzero;stroke:none"
         id="path971" />
    </g>
    <g
       id="g973"
       transform="matrix(0.53184818,0,0,-0.53184818,114.82797,145.01599)"
       style="filter:url(#filter3553)">
      <path
         d="M 0,0 C 0,0.541 0.439,0.979 0.98,0.979 1.522,0.979 1.96,0.541 1.96,0 1.96,-0.542 1.522,-0.98 0.98,-0.98 0.439,-0.98 0,-0.542 0,0"
         style="fill:#00377c;fill-opacity:1;fill-rule:nonzero;stroke:none"
         id="path975" />
    </g>
  </g>
</svg>
